<svg width="20" height="21" viewBox="0 0 20 21" fill="none" xmlns="http://www.w3.org/2000/svg">
<rect x="1.6665" y="2.16667" width="16.6667" height="16.6667" rx="4" fill="#6C5CCA"/>
<path d="M9.81822 4.97174C9.73473 5.00563 9.66661 5.06896 9.62678 5.14972L8.12359 8.19423L4.7581 8.68128C4.69028 8.69133 4.62662 8.72011 4.57431 8.7644C4.522 8.80868 4.48313 8.86672 4.46209 8.9319C4.44104 8.99709 4.43866 9.06685 4.45521 9.13332C4.47176 9.19979 4.50659 9.26029 4.55575 9.30803L6.98884 11.6789L6.41335 15.0257C6.40182 15.0932 6.40941 15.1626 6.43528 15.226C6.46114 15.2895 6.50423 15.3444 6.5597 15.3846C6.61517 15.4249 6.6808 15.4489 6.74918 15.4538C6.81756 15.4588 6.88597 15.4446 6.94668 15.4128L9.95507 13.8334L12.9647 15.4139C13.0255 15.4459 13.094 15.4603 13.1626 15.4553C13.2311 15.4504 13.2969 15.4264 13.3524 15.3861C13.408 15.3457 13.4511 15.2906 13.477 15.227C13.5028 15.1634 13.5103 15.0939 13.4985 15.0263L12.9241 11.6796L15.3574 9.31066C15.4065 9.26291 15.4413 9.20239 15.4578 9.13595C15.4743 9.06951 15.4719 8.99981 15.4509 8.93466C15.4298 8.86951 15.391 8.81151 15.3387 8.76724C15.2865 8.72297 15.2228 8.6942 15.1551 8.68412L11.7912 8.19486L10.2875 5.15001C10.2464 5.06644 10.1751 5.00153 10.088 4.96843C10.0009 4.93534 9.90449 4.93653 9.81822 4.97174Z" fill="#F9FAFF"/>
</svg>
