<svg width="14" height="8" viewBox="0 0 14 8" fill="none" xmlns="http://www.w3.org/2000/svg">
<mask id="path-1-inside-1" fill="white">
<path d="M0 2.64118C0 1.1825 1.1861 -0.0150331 2.63596 0.145169C5.89297 0.505054 9.04247 1.52839 11.889 3.15166C13.1561 3.87426 13.4118 5.54026 12.5544 6.72036C11.697 7.90046 10.0518 8.14318 8.76288 7.46028C6.8501 6.44688 4.77563 5.77284 2.63249 5.46839C1.18831 5.26324 0 4.09987 0 2.64118Z"/>
</mask>
<path d="M0 2.64118C0 1.1825 1.1861 -0.0150331 2.63596 0.145169C5.89297 0.505054 9.04247 1.52839 11.889 3.15166C13.1561 3.87426 13.4118 5.54026 12.5544 6.72036C11.697 7.90046 10.0518 8.14318 8.76288 7.46028C6.8501 6.44688 4.77563 5.77284 2.63249 5.46839C1.18831 5.26324 0 4.09987 0 2.64118Z" stroke="#1E71FF" stroke-width="6" mask="url(#path-1-inside-1)"/>
</svg>
