<svg width="48" height="48" viewBox="0 0 48 48" fill="none" xmlns="http://www.w3.org/2000/svg">
<mask id="path-1-inside-1" fill="white">
<path d="M24 2.64118C24 1.1825 25.1861 -0.0150322 26.6359 0.145171C30.6391 0.587504 34.4819 2.03229 37.8001 4.36441C41.8414 7.20468 44.9079 11.2227 46.5811 15.8703C48.2544 20.5178 48.4528 25.5685 47.1494 30.333C45.846 35.0975 43.1042 39.3437 39.2982 42.4923C35.4922 45.6409 30.8074 47.5385 25.883 47.926C20.9587 48.3136 16.0347 47.1723 11.783 44.6578C7.53131 42.1434 4.15902 38.3783 2.12632 33.8763C0.457296 30.1799 -0.241844 26.1345 0.0737795 22.1193C0.188091 20.6651 1.58666 19.7244 3.01951 19.9978C4.45236 20.2711 5.37245 21.6563 5.30336 23.1134C5.16396 26.0532 5.71937 28.9977 6.94069 31.7026C8.526 35.2136 11.156 38.15 14.4719 40.111C17.7878 42.0721 21.6281 42.9622 25.4686 42.6599C29.3091 42.3577 32.9628 40.8778 35.9311 38.4222C38.8994 35.9666 41.0377 32.6549 42.0542 28.9391C43.0708 25.2232 42.916 21.2843 41.6111 17.6596C40.3061 14.035 37.9146 10.9013 34.7627 8.68618C32.3346 6.97964 29.5463 5.88233 26.6325 5.4684C25.1883 5.26324 24 4.09987 24 2.64118Z"/>
</mask>
<path d="M24 2.64118C24 1.1825 25.1861 -0.0150322 26.6359 0.145171C30.6391 0.587504 34.4819 2.03229 37.8001 4.36441C41.8414 7.20468 44.9079 11.2227 46.5811 15.8703C48.2544 20.5178 48.4528 25.5685 47.1494 30.333C45.846 35.0975 43.1042 39.3437 39.2982 42.4923C35.4922 45.6409 30.8074 47.5385 25.883 47.926C20.9587 48.3136 16.0347 47.1723 11.783 44.6578C7.53131 42.1434 4.15902 38.3783 2.12632 33.8763C0.457296 30.1799 -0.241844 26.1345 0.0737795 22.1193C0.188091 20.6651 1.58666 19.7244 3.01951 19.9978C4.45236 20.2711 5.37245 21.6563 5.30336 23.1134C5.16396 26.0532 5.71937 28.9977 6.94069 31.7026C8.526 35.2136 11.156 38.15 14.4719 40.111C17.7878 42.0721 21.6281 42.9622 25.4686 42.6599C29.3091 42.3577 32.9628 40.8778 35.9311 38.4222C38.8994 35.9666 41.0377 32.6549 42.0542 28.9391C43.0708 25.2232 42.916 21.2843 41.6111 17.6596C40.3061 14.035 37.9146 10.9013 34.7627 8.68618C32.3346 6.97964 29.5463 5.88233 26.6325 5.4684C25.1883 5.26324 24 4.09987 24 2.64118Z" stroke="#1E71FF" stroke-width="6" mask="url(#path-1-inside-1)"/>
</svg>
