<svg width="33" height="48" viewBox="0 0 33 48" fill="none" xmlns="http://www.w3.org/2000/svg">
<mask id="path-1-inside-1" fill="white">
<path d="M8.5 2.64118C8.5 1.1825 9.68602 -0.0150229 11.1359 0.145183C13.7581 0.434929 16.3207 1.15575 18.7187 2.28415C21.9153 3.78836 24.7404 5.97973 26.9923 8.70182C29.2442 11.4239 30.8674 14.6096 31.746 18.0314C32.6246 21.4533 32.7369 25.0269 32.0749 28.4971C31.4129 31.9674 29.993 35.2487 27.9164 38.1068C25.8399 40.965 23.1579 43.3294 20.0621 45.0314C16.9663 46.7333 13.5328 47.7308 10.007 47.9526C7.36202 48.119 4.71396 47.8459 2.16924 47.15C0.76222 46.7652 0.100327 45.2152 0.637304 43.8589C1.17428 42.5027 2.70738 41.8584 4.12567 42.1993C5.9364 42.6345 7.80684 42.7982 9.6753 42.6807C12.4251 42.5077 15.1028 41.7297 17.5173 40.4024C19.9317 39.075 22.0234 37.231 23.6429 35.0019C25.2624 32.7729 26.3698 30.2138 26.8861 27.5073C27.4024 24.8009 27.3148 22.0138 26.6296 19.3451C25.9444 16.6764 24.6785 14.1919 22.9222 12.0689C21.1659 9.94597 18.9626 8.23691 16.4696 7.06378C14.7756 6.26666 12.9762 5.73033 11.1325 5.46841C9.68827 5.26326 8.5 4.09987 8.5 2.64118Z"/>
</mask>
<path d="M8.5 2.64118C8.5 1.1825 9.68602 -0.0150229 11.1359 0.145183C13.7581 0.434929 16.3207 1.15575 18.7187 2.28415C21.9153 3.78836 24.7404 5.97973 26.9923 8.70182C29.2442 11.4239 30.8674 14.6096 31.746 18.0314C32.6246 21.4533 32.7369 25.0269 32.0749 28.4971C31.4129 31.9674 29.993 35.2487 27.9164 38.1068C25.8399 40.965 23.1579 43.3294 20.0621 45.0314C16.9663 46.7333 13.5328 47.7308 10.007 47.9526C7.36202 48.119 4.71396 47.8459 2.16924 47.15C0.76222 46.7652 0.100327 45.2152 0.637304 43.8589C1.17428 42.5027 2.70738 41.8584 4.12567 42.1993C5.9364 42.6345 7.80684 42.7982 9.6753 42.6807C12.4251 42.5077 15.1028 41.7297 17.5173 40.4024C19.9317 39.075 22.0234 37.231 23.6429 35.0019C25.2624 32.7729 26.3698 30.2138 26.8861 27.5073C27.4024 24.8009 27.3148 22.0138 26.6296 19.3451C25.9444 16.6764 24.6785 14.1919 22.9222 12.0689C21.1659 9.94597 18.9626 8.23691 16.4696 7.06378C14.7756 6.26666 12.9762 5.73033 11.1325 5.46841C9.68827 5.26326 8.5 4.09987 8.5 2.64118Z" stroke="#1E71FF" stroke-width="6" mask="url(#path-1-inside-1)"/>
</svg>
