<svg width="49" height="48" viewBox="0 0 49 48" fill="none" xmlns="http://www.w3.org/2000/svg">
<mask id="path-1-inside-1" fill="white">
<path d="M24.5 2.64118C24.5 1.1825 25.6862 -0.0150488 27.136 0.14513C32.4044 0.727167 37.36 3.04194 41.2019 6.76497C45.6792 11.1038 48.2923 17.0146 48.4882 23.2461C48.684 29.4777 46.4471 35.541 42.2511 40.1523C38.0551 44.7637 32.2293 47.5612 26.007 47.9526C19.7846 48.3441 13.6541 46.2988 8.91324 42.2497C4.17237 38.2006 1.19324 32.4656 0.606512 26.2586C0.0197811 20.0516 1.8715 13.8599 5.76968 8.99417C9.11463 4.81899 13.7411 1.90135 18.8949 0.663613C20.3133 0.322982 21.6402 1.36242 21.823 2.8096C22.0059 4.25679 20.9727 5.5599 19.5656 5.94442C15.7727 6.98093 12.3785 9.19349 9.8922 12.2969C6.852 16.0917 5.40785 20.9206 5.86544 25.7615C6.32303 30.6023 8.64645 35.0751 12.3439 38.233C16.0413 41.3909 20.8225 42.986 25.6753 42.6807C30.5281 42.3754 35.0717 40.1936 38.3441 36.5972C41.6166 33.0008 43.3611 28.2721 43.2084 23.4121C43.0557 18.552 41.0177 13.9422 37.5258 10.5584C34.6702 7.79103 31.0254 6.02132 27.1325 5.46835C25.6884 5.26321 24.5 4.09987 24.5 2.64118Z"/>
</mask>
<path d="M24.5 2.64118C24.5 1.1825 25.6862 -0.0150488 27.136 0.14513C32.4044 0.727167 37.36 3.04194 41.2019 6.76497C45.6792 11.1038 48.2923 17.0146 48.4882 23.2461C48.684 29.4777 46.4471 35.541 42.2511 40.1523C38.0551 44.7637 32.2293 47.5612 26.007 47.9526C19.7846 48.3441 13.6541 46.2988 8.91324 42.2497C4.17237 38.2006 1.19324 32.4656 0.606512 26.2586C0.0197811 20.0516 1.8715 13.8599 5.76968 8.99417C9.11463 4.81899 13.7411 1.90135 18.8949 0.663613C20.3133 0.322982 21.6402 1.36242 21.823 2.8096C22.0059 4.25679 20.9727 5.5599 19.5656 5.94442C15.7727 6.98093 12.3785 9.19349 9.8922 12.2969C6.852 16.0917 5.40785 20.9206 5.86544 25.7615C6.32303 30.6023 8.64645 35.0751 12.3439 38.233C16.0413 41.3909 20.8225 42.986 25.6753 42.6807C30.5281 42.3754 35.0717 40.1936 38.3441 36.5972C41.6166 33.0008 43.3611 28.2721 43.2084 23.4121C43.0557 18.552 41.0177 13.9422 37.5258 10.5584C34.6702 7.79103 31.0254 6.02132 27.1325 5.46835C25.6884 5.26321 24.5 4.09987 24.5 2.64118Z" stroke="#1E71FF" stroke-width="6" mask="url(#path-1-inside-1)"/>
</svg>
