<svg width="20" height="20" viewBox="0 0 20 20" fill="none" xmlns="http://www.w3.org/2000/svg">
<path d="M5.26125 0C4.58824 0 4.0376 0.5625 4.0376 1.25V18.75C4.0376 19.4375 4.58824 20 5.26125 20H17.4978C18.1708 20 18.7214 19.4375 18.7214 18.75V5L13.8268 0H5.26125Z" fill="#E2E5E7"/>
<path d="M15.0508 5H18.7218L13.8271 0V3.75C13.8271 4.4375 14.3778 5 15.0508 5Z" fill="#B0B7BD"/>
<path d="M18.7217 8.75L15.0508 5H18.7217V8.75Z" fill="#CAD1D8"/>
<path d="M16.2742 16.25C16.2742 16.5938 15.9989 16.875 15.6623 16.875H2.20216C1.86565 16.875 1.59033 16.5938 1.59033 16.25V10C1.59033 9.65625 1.86565 9.375 2.20216 9.375H15.6623C15.9989 9.375 16.2742 9.65625 16.2742 10V16.25Z" fill="#F15642"/>
<path d="M4.25732 11.8419C4.25732 11.6769 4.38458 11.4969 4.58955 11.4969H5.71959C6.35589 11.4969 6.92856 11.9319 6.92856 12.7656C6.92856 13.5556 6.35589 13.9956 5.71959 13.9956H4.9028V14.6556C4.9028 14.8756 4.76575 15 4.58955 15C4.42802 15 4.25732 14.8756 4.25732 14.6556V11.8419ZM4.9028 12.1263V13.3713H5.71959C6.04753 13.3713 6.30694 13.0756 6.30694 12.7656C6.30694 12.4163 6.04753 12.1263 5.71959 12.1263H4.9028Z" fill="white"/>
<path d="M7.88656 15C7.72503 15 7.54883 14.91 7.54883 14.6907V11.8519C7.54883 11.6725 7.72503 11.5419 7.88656 11.5419H9.00681C11.2424 11.5419 11.1935 15 9.05086 15H7.88656ZM8.19492 12.1519V14.3907H9.00681C10.3277 14.3907 10.3865 12.1519 9.00681 12.1519H8.19492Z" fill="white"/>
<path d="M11.9867 12.1919V12.9863H13.2342C13.4104 12.9863 13.5866 13.1663 13.5866 13.3406C13.5866 13.5056 13.4104 13.6406 13.2342 13.6406H11.9867V14.69C11.9867 14.865 11.8649 14.9994 11.6936 14.9994C11.4782 14.9994 11.3467 14.865 11.3467 14.69V11.8513C11.3467 11.6719 11.4788 11.5413 11.6936 11.5413H13.411C13.6263 11.5413 13.7536 11.6719 13.7536 11.8513C13.7536 12.0113 13.6263 12.1913 13.411 12.1913H11.9867V12.1919Z" fill="white"/>
<path d="M15.6623 16.875H4.0376V17.5H15.6623C15.9988 17.5 16.2741 17.2188 16.2741 16.875V16.25C16.2741 16.5938 15.9988 16.875 15.6623 16.875Z" fill="#CAD1D8"/>
</svg>
