<svg width="138" height="138" viewBox="0 0 138 138" fill="none" xmlns="http://www.w3.org/2000/svg">
<path d="M69 11.5C37.2438 11.5 11.5 37.2439 11.5 69C11.5 100.756 37.2438 126.5 69 126.5C100.756 126.5 126.5 100.756 126.5 69C126.5 37.2439 100.756 11.5 69 11.5V11.5ZM56.2422 41.6875C57.2848 41.6631 58.3808 41.9358 59.4316 42.5411L93.2129 63.3398C95.0538 64.4758 96.3125 66.561 96.3125 69C96.3125 71.439 95.0538 73.5241 93.2129 74.6602L59.4316 95.4589C55.2282 97.8802 50.4193 94.7951 50.3125 89.7089V48.2461C50.3924 44.4314 53.1145 41.7624 56.2422 41.6875Z" fill="#1E71FF"/>
</svg>
