<svg width="24" height="25" viewBox="0 0 24 25" fill="none" xmlns="http://www.w3.org/2000/svg">
<path d="M2.21333 5.08517L2.15333 5.20073C2.05148 5.39666 2 5.6011 2 5.80777V19.4885C2 19.5767 2.00926 19.6626 2.02556 19.7459L2.06 19.9207L10.0926 12.4652L2.21333 5.08517Z" fill="#273B62"/>
<path d="M11.9921 12.7504C12.4306 12.7504 12.838 12.6137 13.1391 12.3652L21.3573 4.66593L21.2169 4.60519C21.0565 4.53519 20.8873 4.5 20.7128 4.5H3.2869C3.11246 4.5 2.9432 4.53519 2.78246 4.60481L2.64209 4.66556L10.8743 12.3778C11.1688 12.6196 11.5639 12.7504 11.9921 12.7504Z" fill="#273B62"/>
<path d="M21.8462 5.20073L21.7862 5.08554L13.9077 12.4655L21.9399 19.9211L21.9744 19.7463C21.9907 19.6626 21.9999 19.5767 21.9999 19.4885V5.80776C21.9999 5.59999 21.9481 5.39591 21.8462 5.20073Z" fill="#273B62"/>
<path d="M13.3933 12.9111C12.9922 13.1919 12.4944 13.3459 11.9922 13.3459C11.4892 13.3459 10.9966 13.1922 10.6048 12.9133L10.54 12.8674L2.39331 20.4289L2.48294 20.5022C2.71813 20.6945 2.99627 20.7963 3.28701 20.7963H20.7129C21.0037 20.7963 21.2818 20.6945 21.517 20.5022L21.6066 20.4289L13.4581 12.8659L13.3933 12.9111Z" fill="#273B62"/>
</svg>
