<svg width="24" height="25" viewBox="0 0 24 25" fill="none" xmlns="http://www.w3.org/2000/svg">
<path d="M19.5553 18.1912L18.9125 16.9028C18.5138 16.1161 18.3073 15.2461 18.3097 14.3642V10.3056C18.3133 9.52182 18.1605 8.74521 17.8604 8.02118C17.5603 7.29716 17.1188 6.64023 16.5618 6.08883C15.8969 5.42012 15.0783 4.92444 14.1776 4.64511V4.33628C14.1776 3.84927 13.9842 3.3822 13.6398 3.03783C13.2954 2.69346 12.8284 2.5 12.3414 2.5C11.8543 2.5 11.3873 2.69346 11.0429 3.03783C10.6985 3.3822 10.5051 3.84927 10.5051 4.33628V4.65442C9.30641 5.03704 8.26028 5.79055 7.51761 6.80625C6.77493 7.82195 6.37412 9.04732 6.37299 10.3056V14.3642C6.37546 15.2468 6.16856 16.1175 5.76927 16.9046L5.12741 18.1921C5.03516 18.3772 4.99174 18.5829 5.00129 18.7895C5.01085 18.9962 5.07304 19.1969 5.18198 19.3728C5.29092 19.5486 5.44299 19.6937 5.62376 19.7943C5.80452 19.8949 6.00799 19.9476 6.21485 19.9474H18.4679C18.6748 19.9474 18.8782 19.8945 19.059 19.7939C19.2397 19.6932 19.3917 19.548 19.5006 19.3721C19.6096 19.1962 19.6717 18.9954 19.6813 18.7887C19.6909 18.5821 19.6475 18.3764 19.5553 18.1912Z" fill="#273B62"/>
<path d="M12.3412 22.5C12.9105 22.5004 13.4698 22.3506 13.9626 22.0655C14.4554 21.7805 14.8642 21.3704 15.1477 20.8767H9.53467C9.81817 21.3704 10.227 21.7805 10.7198 22.0655C11.2126 22.3506 11.7719 22.5004 12.3412 22.5Z" fill="#273B62"/>
<circle cx="19" cy="18" r="4" fill="#1E71FF"/>
</svg>
