<svg width="24" height="25" viewBox="0 0 24 25" fill="none" xmlns="http://www.w3.org/2000/svg">
<path d="M21.7841 21.1804L16.9677 16.343C18.1906 14.8589 18.8717 13.0017 18.8985 11.0779C18.9254 9.15415 18.2965 7.27866 17.1155 5.76086C15.9345 4.24306 14.2721 3.17364 12.4024 2.72901C10.5327 2.28438 8.56749 2.49111 6.83094 3.31509C5.09439 4.13908 3.69025 5.53109 2.85017 7.26149C2.01008 8.99189 1.78424 10.9573 2.20989 12.8335C2.63555 14.7097 3.68727 16.3846 5.19156 17.5818C6.69585 18.7791 8.56284 19.4272 10.4845 19.4193C11.2634 19.4192 12.0387 19.3131 12.789 19.104C13.9174 18.7778 14.9644 18.217 15.8616 17.4582L20.6702 22.2725C20.7416 22.3446 20.8266 22.4018 20.9202 22.4409C21.0138 22.4799 21.1142 22.5 21.2156 22.5C21.317 22.5 21.4174 22.4799 21.511 22.4409C21.6046 22.4018 21.6896 22.3446 21.761 22.2725C21.8345 22.2026 21.8935 22.1187 21.9345 22.0258C21.9755 21.9329 21.9977 21.8328 21.9998 21.7313C22.002 21.6298 21.984 21.5288 21.947 21.4343C21.9099 21.3397 21.8546 21.2535 21.7841 21.1804ZM12.3742 17.6197C11.7596 17.7947 11.1235 17.8828 10.4845 17.8812C8.73375 17.8793 7.04887 17.2125 5.77007 16.0152C4.49126 14.818 3.71377 13.1797 3.59457 11.4309C3.47537 9.68208 4.02333 7.95314 5.12783 6.5931C6.23233 5.23306 7.81109 4.34322 9.54539 4.10324C11.2797 3.86326 13.0403 4.291 14.4719 5.30011C15.9035 6.30923 16.8993 7.82455 17.2583 9.54015C17.6174 11.2558 17.3129 13.0438 16.4064 14.5434C15.4999 16.043 14.0588 17.1424 12.3742 17.6197Z" fill="#273B62"/>
</svg>
