<svg width="24" height="24" viewBox="0 0 24 24" fill="none" xmlns="http://www.w3.org/2000/svg">
<rect x="2" y="2" width="20" height="20" rx="4" fill="#6C5CCA"/>
<path d="M11.7819 5.36608C11.6817 5.40675 11.6 5.48274 11.5522 5.57965L9.74835 9.23307L5.70977 9.81753C5.62838 9.82959 5.55199 9.86413 5.48922 9.91727C5.42645 9.97041 5.37981 10.0401 5.35455 10.1183C5.3293 10.1965 5.32644 10.2802 5.3463 10.36C5.36616 10.4397 5.40795 10.5123 5.46695 10.5696L8.38665 13.4147L7.69607 17.4308C7.68223 17.5118 7.69135 17.5951 7.72238 17.6712C7.75341 17.7473 7.80513 17.8132 7.87169 17.8616C7.93825 17.9099 8.01701 17.9387 8.09906 17.9446C8.18112 17.9506 8.26321 17.9335 8.33607 17.8953L11.9461 16L15.5577 17.8967C15.6306 17.9351 15.7129 17.9523 15.7951 17.9464C15.8774 17.9405 15.9563 17.9117 16.023 17.8633C16.0897 17.8149 16.1414 17.7488 16.1724 17.6724C16.2034 17.5961 16.2124 17.5127 16.1983 17.4315L15.509 13.4155L18.429 10.5728C18.4879 10.5155 18.5296 10.4429 18.5494 10.3631C18.5692 10.2834 18.5664 10.1998 18.5411 10.1216C18.5159 10.0434 18.4692 9.9738 18.4065 9.92068C18.3438 9.86756 18.2675 9.83303 18.1861 9.82094L14.1495 9.23383L12.345 5.58001C12.2958 5.47972 12.2102 5.40183 12.1057 5.36211C12.0012 5.3224 11.8854 5.32383 11.7819 5.36608Z" fill="#F9FAFF"/>
</svg>
