<svg width="20" height="20" viewBox="0 0 20 20" fill="none" xmlns="http://www.w3.org/2000/svg">
<rect x="1.66663" y="1.66666" width="16.6667" height="16.6667" rx="4" fill="#6C5CCA"/>
<path d="M9.81835 4.47172C9.73485 4.50561 9.66673 4.56894 9.6269 4.6497L8.12371 7.69421L4.75822 8.18126C4.6904 8.19131 4.62674 8.22009 4.57443 8.26438C4.52212 8.30866 4.48325 8.3667 4.46221 8.43189C4.44116 8.49707 4.43878 8.56683 4.45533 8.6333C4.47188 8.69977 4.50671 8.76027 4.55587 8.80801L6.98896 11.1789L6.41347 14.5257C6.40194 14.5932 6.40954 14.6626 6.4354 14.726C6.46126 14.7894 6.50435 14.8444 6.55982 14.8846C6.61529 14.9249 6.68092 14.9489 6.7493 14.9538C6.81768 14.9588 6.88609 14.9446 6.94681 14.9128L9.95519 13.3333L12.9648 14.9139C13.0256 14.9459 13.0942 14.9602 13.1627 14.9553C13.2312 14.9504 13.297 14.9264 13.3526 14.8861C13.4081 14.8457 13.4513 14.7906 13.4771 14.727C13.5029 14.6634 13.5104 14.5939 13.4987 14.5262L12.9242 11.1796L15.3576 8.81064C15.4067 8.76289 15.4414 8.70237 15.4579 8.63593C15.4744 8.56949 15.472 8.49979 15.451 8.43464C15.43 8.36949 15.3911 8.31149 15.3388 8.26722C15.2866 8.22295 15.223 8.19418 15.1552 8.1841L11.7913 7.69484L10.2876 4.65C10.2465 4.56642 10.1753 4.50151 10.0882 4.46842C10.0011 4.43532 9.90462 4.43651 9.81835 4.47172Z" fill="#F9FAFF"/>
</svg>
